<svg xmlns="http://www.w3.org/2000/svg" viewBox="-60 -840 4647 1160"><g transform="scale(1 -1)"><path transform="translate(0 0)" fill="#FFFFFF" d="M331 -14Q267 -14 215.0 -2.0Q163 10 125.0 34.5Q87 59 65.0 97.0Q43 135 39 185L180 232Q183 190 204.0 162.0Q225 134 260.5 120.5Q296 107 340 107Q382 107 410.5 117.5Q439 128 453.5 144.5Q468 161 468 180Q468 202 449.0 216.5Q430 231 397.0 241.5Q364 252 320 262Q270 274 222.0 288.0Q174 302 135.0 324.5Q96 347 73.5 382.5Q51 418 51 472Q51 533 82.0 578.0Q113 623 173.0 648.5Q233 674 321 674Q408 674 469.0 649.0Q530 624 563.0 579.5Q596 535 599 476L455 435Q455 464 445.5 486.0Q436 508 419.0 522.5Q402 537 377.0 544.5Q352 552 320 552Q282 552 255.5 543.0Q229 534 216.0 519.5Q203 505 203 486Q203 462 223.5 446.5Q244 431 279.5 420.5Q315 410 358 400Q401 391 447.0 377.5Q493 364 533.0 342.0Q573 320 597.5 282.5Q622 245 622 188Q622 127 589.5 81.5Q557 36 492.0 11.0Q427 -14 331 -14Z"/><path transform="translate(658 0)" fill="#FFFFFF" d="M62 -169V258V528H194L196 378L214 376Q223 432 246.0 469.0Q269 506 305.5 524.0Q342 542 389 542Q459 542 509.5 508.0Q560 474 587.0 411.0Q614 348 614 260Q614 182 590.5 120.0Q567 58 519.5 22.0Q472 -14 399 -14Q350 -14 316.0 3.5Q282 21 258.5 55.0Q235 89 219 140H200Q206 113 211.0 85.0Q216 57 219.5 31.0Q223 5 223 -19V-169ZM340 113Q373 113 396.5 131.0Q420 149 433.0 182.0Q446 215 446 259Q446 306 432.5 339.5Q419 373 394.0 391.5Q369 410 336 410Q305 410 283.5 396.5Q262 383 248.5 361.5Q235 340 229.0 316.0Q223 292 223 271V249Q223 230 228.0 211.0Q233 192 243.0 174.5Q253 157 267.0 143.0Q281 129 299.5 121.0Q318 113 340 113Z"/><path transform="translate(1306 0)" fill="#FFFFFF" d="M62 0V720H220V0Z"/><path transform="translate(1589 0)" fill="#FFFFFF" d="M62 0V528H223V0ZM143 602Q97 602 72.5 621.5Q48 641 48 677Q48 715 72.5 734.5Q97 754 143 754Q190 754 214.5 734.5Q239 715 239 678Q239 641 214.5 621.5Q190 602 143 602Z"/><path transform="translate(1875 0)" fill="#FFFFFF" d="M268 -13Q175 -13 131.0 36.5Q87 86 87 195V402H12L15 527H69Q101 528 117.5 537.0Q134 546 138 571L151 645H242V528H369V397H242V202Q242 168 258.5 152.0Q275 136 309 136Q328 136 345.0 140.0Q362 144 373 151V2Q341 -8 314.5 -10.5Q288 -13 268 -13Z"/><path transform="translate(2281 0)" fill="#7FAEF5" d="M557 -14Q503 -14 451.5 10.5Q400 35 353.5 77.5Q307 120 268.5 172.5Q230 225 200.5 281.5Q171 338 155.5 392.0Q140 446 140 490Q140 540 162.0 582.0Q184 624 230.5 650.0Q277 676 349 676Q416 676 461.0 654.0Q506 632 529.0 596.0Q552 560 552 517Q552 484 536.5 455.0Q521 426 485.0 402.5Q449 379 387 362L379 376Q390 402 398.0 429.5Q406 457 406 484Q406 510 395.0 531.0Q384 552 353 552Q334 552 322.5 543.5Q311 535 306.0 521.0Q301 507 301 489Q301 464 312.0 427.0Q323 390 342.0 348.0Q361 306 386.0 265.5Q411 225 439.5 191.5Q468 158 498.0 138.0Q528 118 556 118Q575 118 586.5 127.0Q598 136 598 152Q598 169 584.5 187.0Q571 205 545.0 221.0Q519 237 480 246V364H709V251L533 281V261Q638 242 685.0 208.0Q732 174 732 116Q732 74 712.0 48.0Q692 22 662.5 9.0Q633 -4 604.5 -9.0Q576 -14 557 -14ZM190 -15Q141 -15 100.5 2.0Q60 19 36.5 53.0Q13 87 13 137Q13 188 35.5 221.0Q58 254 91.0 272.5Q124 291 158.0 299.5Q192 308 214 310L216 294Q188 269 175.5 240.5Q163 212 163 186Q163 155 178.5 133.0Q194 111 219.5 100.0Q245 89 274 89Q297 89 317.0 96.5Q337 104 354 118L368 77H349Q334 47 311.5 26.5Q289 6 259.0 -4.5Q229 -15 190 -15Z"/><path transform="translate(3035 0)" fill="#FFFFFF" d="M69 0V660H230V0ZM148 235V366H535V235ZM148 523V660H571V523Z"/><path transform="translate(3636 0)" fill="#FFFFFF" d="M62 0V720H220V0Z"/><path transform="translate(3919 0)" fill="#FFFFFF" d="M265 -184Q225 -184 183.0 -177.0Q141 -170 103.5 -156.5Q66 -143 39 -121L78 22Q113 -11 162.5 -27.0Q212 -43 258 -43Q311 -43 345.5 -22.5Q380 -2 398.5 40.5Q417 83 420 146L425 233H401Q392 168 369.5 127.0Q347 86 312.5 66.5Q278 47 231 47Q173 47 134.0 76.0Q95 105 75.5 163.5Q56 222 56 309V528H218V349Q218 257 236.5 217.5Q255 178 295 178Q316 178 333.0 190.0Q350 202 362.0 224.0Q374 246 380.5 277.5Q387 309 387 348V528H548V140Q548 77 536.5 25.0Q525 -27 502.5 -66.0Q480 -105 446.0 -131.5Q412 -158 367.0 -171.0Q322 -184 265 -184Z"/></g></svg>